<svg xmlns="http://www.w3.org/2000/svg" version="1.1" xmlns:xlink="http://www.w3.org/1999/xlink" xmlns:svgjs="http://svgjs.dev/svgjs" width="1920" height="404" preserveAspectRatio="none" viewBox="0 0 1920 404"><g mask="url(&quot;#SvgjsMask1147&quot;)" fill="none"><rect width="1920" height="404" x="0" y="0" fill="url(&quot;#SvgjsLinearGradient1148&quot;)"></rect><path d="M 0,185 C 76.8,164.6 230.4,90.4 384,83 C 537.6,75.6 614.4,153.8 768,148 C 921.6,142.2 998.4,63 1152,54 C 1305.6,45 1382.4,108.6 1536,103 C 1689.6,97.4 1843.2,41.4 1920,26L1920 404L0 404z" fill="#184a7e"></path><path d="M 0,259 C 38.4,282.8 115.2,377.6 192,378 C 268.8,378.4 307.2,268.2 384,261 C 460.8,253.8 499.2,346.2 576,342 C 652.8,337.8 691.2,231 768,240 C 844.8,249 883.2,380.2 960,387 C 1036.8,393.8 1075.2,287.2 1152,274 C 1228.8,260.8 1267.2,326.6 1344,321 C 1420.8,315.4 1459.2,230.2 1536,246 C 1612.8,261.8 1651.2,401.4 1728,400 C 1804.8,398.6 1881.6,271.2 1920,239L1920 404L0 404z" fill="#2264ab"></path></g><defs><mask id="SvgjsMask1147"><rect width="1920" height="404" fill="#ffffff"></rect></mask><linearGradient x1="50%" y1="0%" x2="50%" y2="100%" gradientUnits="userSpaceOnUse" id="SvgjsLinearGradient1148"><stop stop-color="#0e2a47" offset="0"></stop><stop stop-color="rgba(0, 72, 165, 1)" offset="1"></stop></linearGradient></defs></svg>